<svg id="Layer_1" data-name="Layer 1" xmlns="http://www.w3.org/2000/svg" viewBox="0 0 813.66 338.5"><defs><style>.cls-1{fill:#f7901e;}.cls-2{fill:#fff;}</style></defs><path class="cls-1" d="M161.76,131.46C140.68,143.07,16.49,212.33,28,249.3c13.75,44.36,214.32,15.13,224.41,13.62,0,0,172.57-18.66,432.39-125.83a330,330,0,0,0,34.75-16.9c17.64-9.86,26.94-17.21,45.54-31.92a102,102,0,0,0,13.61-13.62c6.06-7.27,7.39-10.89,8-13.61a27.45,27.45,0,0,0-.94-13.15C778.81,27.2,705,19.25,705,19.25Q673.2,17,640.93,15q-12.39-.73-24.71-1.42c13.16-2.17,31.48-4.77,53.52-6.57a443,443,0,0,1,49.77-1.88c4.81.11,36.55,1,63.38,10.8a48.59,48.59,0,0,1,16.9,9.86A46,46,0,0,1,812,44.14s4.79,13.93-1.87,33.33c-8,23.13-50,60.79-114.09,96.71a112.22,112.22,0,0,1-2.35,58.69V338.5L620,338V307.52a1469.51,1469.51,0,0,1-185.91,11.73A1470.32,1470.32,0,0,1,252.84,308v30H179.13l.47-27.23c-32.78.27-60-1.19-80.28-2.81A221.23,221.23,0,0,1,51,299.07c-18.54-5.67-27.65-11.27-34.74-17.84-5.14-4.76-12.18-11.45-15-22.54-3.08-12,.54-22.18,2.34-27.23,2.35-6.58,6-12.92,13.62-21.6,9.46-10.75,20.49-19.89,39.9-31.92a401.87,401.87,0,0,1,43.67-23.47A459.43,459.43,0,0,1,161.76,131.46Z" transform="translate(0)"/><path class="cls-2" d="M354.75,289.9c36.06,2,65.26,3.4,86.31,4.33,50.75,2.24,8.7-.18,30.54.67,0,0,42,1.63,62.75-5.8a21.81,21.81,0,0,0,5-2.67,22.67,22.67,0,0,0,4.71-5.13c4.34-6.66,8.17-17.29,10.34-23.41,3.07-8.67,4.12-12,4.88-16.79a71.14,71.14,0,0,0,.78-7.6Z" transform="translate(0)"/><path class="cls-1" d="M180.33,235.93q31.74-3.12,65.35-7.93a1431.09,1431.09,0,0,0,144-28.46c-15,0-30.82-.35-47.43-1.33-25.24-1.48-48.22-3.84-48.18-4.32s21.49,1.1,58.72,2.45c18.86.69,34.34,1,44.6,1.25,39.66-9.58,82-21.41,126.44-36.09,51.7-17.09,98.93-35.63,141.5-54.33L645.9,88.61l6.24-3.12,5.46-.78a23,23,0,0,0,5.86,3.9c11.32,5.2,23.73-.84,30.83-4.29,0,0,12.74-6.21,19.12-16.78a14,14,0,0,0,2-5.47,9.16,9.16,0,0,0-.78-5.85,8.58,8.58,0,0,0-4.68-3.51,56.24,56.24,0,0,0-16.78-3.51c-11.13-.27-17.08-.41-25.76,1.17-2.42.44-7.6,2-18,5.07-2.81.85-6.19,1.92-8.2,5.07a10.73,10.73,0,0,0-1.56,5.86L634.19,75,588.92,20.32a41.06,41.06,0,0,0-8.59-9c-10.73-8.2-20.8-7.16-64.64-9.75-4-.23-8.43-.71-15-.78-8.45-.1-24.66-1-55-.79-14.39.09-28.85.45-57.76,1.18-3.22.08-26.34.68-56.29,2.92-22,1.65-26.72,2.6-32.52,5.76-7.3,4-14.68,12.76-29.43,30.34-4.4,5.24-6.28,7.74-16.39,19.9-5.1,6.14-9.32,11.15-12.1,14.44a12.64,12.64,0,0,1-2.83-2A13,13,0,0,1,235,66.76c-.44-1.54-.15-1.62-.59-3A14.1,14.1,0,0,0,231.55,59c-5.36-6-24.29-8.49-24.29-8.49s-11.48-1.51-31.9-.39a37.16,37.16,0,0,0-5.37.78c-3.67.81-6.24,1.42-8.29,3.61a10.43,10.43,0,0,0-2.34,4.39c-.23.9-.82,3.82,1.27,8.49,2.61,5.84,7.09,9.17,12.88,13.37A44.87,44.87,0,0,0,183,86.46a40.5,40.5,0,0,0,14.73,3.22c5.3.26,11.16.54,14.24-2.05a14.82,14.82,0,0,1,3.81-2.34,8.6,8.6,0,0,1,3.61-.78,8.34,8.34,0,0,1,3,.78,20.48,20.48,0,0,1,5.47,3.42c-17.59,17.2-26.26,25.21-30.34,28.58a29.33,29.33,0,0,0-3.52,3.42,32.33,32.33,0,0,0-6.44,12.19c-4.94,16.15-7.51,29-7.51,29-1.74,8.72-2.66,13.37-3.51,20.19a138.41,138.41,0,0,0-1.37,19.42,124.14,124.14,0,0,0,1.27,16.88A122.36,122.36,0,0,0,180.33,235.93Z" transform="translate(0)"/><path class="cls-2" d="M227.62,134.57c34.1,14.37,58.68,24.66,62.44,26a12,12,0,0,1,4.1,2.34,10.81,10.81,0,0,1,3.12,4.49,11.25,11.25,0,0,1,.39,5.66,17,17,0,0,1-2.54,6.63c-2.44,4.16-5.4,6.49-8.58,9-3,2.32-4.37,2.85-5.27,3.12a13,13,0,0,1-6.2.19c-19.61-3.63-38.81-9.29-58.39-13.07a8.27,8.27,0,0,1-3.9-1.76c-.88-.74-2-2.08-2.86-5.2a24.82,24.82,0,0,1-.65-8.06c.24-7.79-.57-15.09.39-21.86a8.33,8.33,0,0,1,.58-2.14c1.35-3.11,4.41-4.5,5.66-5.08a14.61,14.61,0,0,1,7.42-1.17A16.17,16.17,0,0,1,227.62,134.57Z" transform="translate(0)"/><path class="cls-2" d="M252.4,84.42l42-57.75a13,13,0,0,1,2.15-2.93c3.23-3.3,7.55-4,9.56-4.29a934,934,0,0,1,133.85-8.2c13.77,0,20.65.54,27.52.59,0,0,69.21.51,98.34,7.41a23.2,23.2,0,0,1,5.66,2.15,23.68,23.68,0,0,1,7.8,7c4.4,5.93,20.35,27,41.56,55.61-26.39,3.87-57.13,7.55-91.51,10.15-45,3.4-80.12,3.7-95.61,3.71a1217.9,1217.9,0,0,1-122.93-6C287,89.42,267,86.66,252.4,84.42Z" transform="translate(0)"/></svg>